<svg width="24" height="24" viewBox="0 0 24 24" fill="none" xmlns="http://www.w3.org/2000/svg">
<path fill-rule="evenodd" clip-rule="evenodd" d="M12 0C12.5523 0 13 0.447715 13 1V3C13 3.55228 12.5523 4 12 4C11.4477 4 11 3.55228 11 3V1C11 0.447715 11.4477 0 12 0ZM3.73625 3.29294C4.12678 2.90242 4.75994 2.90242 5.15047 3.29294L6.56468 4.70715C6.9552 5.09768 6.9552 5.73084 6.56468 6.12137C6.17416 6.51189 5.54099 6.51189 5.15047 6.12137L3.73625 4.70715C3.34573 4.31663 3.34573 3.68347 3.73625 3.29294ZM20.4853 3.51472C20.8758 3.90524 20.8758 4.53841 20.4853 4.92893L19.0711 6.34314C18.6805 6.73367 18.0474 6.73367 17.6569 6.34314C17.2663 5.95262 17.2663 5.31945 17.6569 4.92893L19.0711 3.51472C19.4616 3.12419 20.0948 3.12419 20.4853 3.51472ZM12 8C9.79086 8 8 9.79086 8 12C8 14.2091 9.79086 16 12 16C14.2091 16 16 14.2091 16 12C16 9.79086 14.2091 8 12 8ZM6 12C6 8.68629 8.68629 6 12 6C15.3137 6 18 8.68629 18 12C18 15.3137 15.3137 18 12 18C8.68629 18 6 15.3137 6 12ZM20 12C20 11.4477 20.4477 11 21 11H23C23.5523 11 24 11.4477 24 12C24 12.5523 23.5523 13 23 13H21C20.4477 13 20 12.5523 20 12ZM0 12C0 11.4477 0.447715 11 1 11H3C3.55228 11 4 11.4477 4 12C4 12.5523 3.55228 13 3 13H1C0.447715 13 0 12.5523 0 12ZM17.8784 17.4351C18.2689 17.0446 18.9021 17.0446 19.2926 17.4351L20.7068 18.8493C21.0973 19.2398 21.0973 19.873 20.7068 20.2635C20.3163 20.654 19.6831 20.654 19.2926 20.2635L17.8784 18.8493C17.4879 18.4588 17.4879 17.8256 17.8784 17.4351ZM6.34315 17.6569C6.73367 18.0474 6.73367 18.6805 6.34315 19.0711L4.92893 20.4853C4.53841 20.8758 3.90524 20.8758 3.51472 20.4853C3.12419 20.0948 3.12419 19.4616 3.51472 19.0711L4.92893 17.6569C5.31946 17.2663 5.95262 17.2663 6.34315 17.6569ZM12 20C12.5523 20 13 20.4477 13 21V23C13 23.5523 12.5523 24 12 24C11.4477 24 11 23.5523 11 23V21C11 20.4477 11.4477 20 12 20Z" fill="#ffffff" id="id_101"></path>
</svg>