<?xml version="1.0" encoding="UTF-8"?>
<svg width="752pt" height="752pt" version="1.1" viewBox="0 0 752 752" xmlns="http://www.w3.org/2000/svg">
 <g>
  <path d="m376 287.2c-48.973 0-88.797 39.824-88.797 88.797s39.824 88.797 88.797 88.797 88.797-39.824 88.797-88.797c0-48.969-39.824-88.797-88.797-88.797z"/>
  <path d="m376 257.61c8.168 0 14.801-6.6172 14.801-14.801v-59.195c0-8.1836-6.6289-14.801-14.801-14.801-8.168 0-14.801 6.6172-14.801 14.801v59.199c0.003906 8.1836 6.6328 14.797 14.801 14.797z"/>
  <path d="m470.18 296.62c3.7891 0 7.5781-1.4492 10.465-4.3359l41.867-41.852c5.7852-5.7852 5.7852-15.141 0-20.926s-15.141-5.7852-20.926 0l-41.867 41.852c-5.7852 5.7852-5.7852 15.141 0 20.926 2.8867 2.8867 6.6719 4.3359 10.461 4.3359z"/>
  <path d="m271.36 292.3c2.8867 2.8867 6.6758 4.3359 10.465 4.3359 3.7891 0 7.5781-1.4492 10.465-4.3359 5.7852-5.7852 5.7852-15.141 0-20.926l-41.855-41.867c-5.7852-5.7852-15.141-5.7852-20.926 0s-5.7852 15.141 0 20.926z"/>
  <path d="m376 494.4c-8.168 0-14.801 6.6172-14.801 14.801v59.199c0 8.1836 6.6289 14.801 14.801 14.801 8.168 0 14.801-6.6172 14.801-14.801v-59.199c0-8.1875-6.6289-14.801-14.801-14.801z"/>
  <path d="m271.36 459.72-41.867 41.852c-5.7852 5.7852-5.7852 15.141 0 20.926 2.8867 2.8867 6.6758 4.3359 10.465 4.3359s7.5781-1.4492 10.465-4.3359l41.867-41.852c5.7852-5.7852 5.7852-15.141 0-20.926-5.7891-5.7891-15.145-5.7734-20.93 0z"/>
  <path d="m480.65 459.71c-5.7852-5.7852-15.141-5.7852-20.926 0-5.7852 5.7852-5.7852 15.141 0 20.926l41.852 41.867c2.8867 2.8867 6.6758 4.3359 10.465 4.3359 3.7891 0 7.5781-1.4492 10.465-4.3359 5.7852-5.7852 5.7852-15.141 0-20.926z"/>
  <path d="m257.61 376c0-8.1562-6.6172-14.801-14.801-14.801l-59.195 0.003906c-8.168 0-14.801 6.6172-14.801 14.801 0 8.168 6.6172 14.801 14.801 14.801h59.199c8.168-0.003907 14.797-6.6211 14.797-14.805z"/>
  <path d="m568.39 361.2h-59.199c-8.168 0-14.801 6.6172-14.801 14.801s6.6289 14.801 14.801 14.801h59.199c8.168 0 14.801-6.6172 14.801-14.801-0.003906-8.1875-6.6328-14.801-14.801-14.801z"/>
 </g>
</svg>
