<svg xmlns="http://www.w3.org/2000/svg" width="62" height="62" viewBox="0 0 62 62"><g fill="#000" fill-rule="evenodd" transform="translate(-1 -1)"><path d="M51.81 35.962h-6.4c-.915 0-1.524-.61-1.524-1.524s.61-1.524 1.524-1.524h6.4c1.523 0 3.047-.304 4.571-.61.914-.304 1.524-.609 2.133-.914.61-.304.915-1.219.915-1.828 0-.61-.305-1.22-.61-1.829-1.524-1.828-4.267-3.047-7.924-4.266-.305 0-.305-.305-.61-.305-.914-.61-1.523-1.524-1.828-2.438 0-1.22.61-2.134 1.524-2.743 2.133-3.048 3.352-5.79 3.048-8.229-.305-1.523-.915-2.742-2.134-3.657-2.133-1.524-5.18-1.524-7.01 0-1.218.915-1.828 2.134-2.133 3.657-.304 2.438.915 5.181 3.048 8.229.61.61.305 1.524-.305 2.133-.61.61-1.524.305-2.133-.304-3.048-3.658-4.267-7.315-3.657-10.667.305-2.133 1.524-4.267 3.352-5.486 3.048-2.438 7.62-2.438 10.667 0 1.828 1.524 3.047 3.353 3.352 5.486.305 3.352-.914 7.01-3.657 10.667-.305.304-.305.609-.61.609 0 0 .305 0 .305.305 3.962 1.219 7.01 3.047 8.838 5.18.915.915 1.524 2.439 1.524 3.963a5.332 5.332 0 01-2.133 4.266c-.914.61-1.829 1.22-3.048 1.524-1.828 0-3.657.305-5.485.305zM18.59 35.962h-6.4c-2.133 0-3.961-.305-5.485-.914-1.22-.305-2.134-.915-3.048-1.524-1.219-.914-2.133-2.743-2.133-4.267 0-1.524.61-2.743 1.524-3.962 2.133-2.133 5.18-3.657 9.142-4.876 0 0 .305 0 .305-.305 0 0-.305-.304-.305-.61C9.143 15.849 7.62 11.887 8.23 8.839c.304-2.133 1.523-4.267 3.352-5.486 3.048-2.438 7.619-2.438 10.667 0 1.828 1.524 3.047 3.353 3.352 5.486.305 3.352-.914 7.01-3.657 10.667-.61.61-1.524.61-2.133.305-.61-.61-.915-1.524-.305-2.134 2.438-3.047 3.352-6.095 3.047-8.228 0-1.524-.914-2.743-2.133-3.658-2.133-1.523-4.876-1.523-7.01 0-1.219.915-2.133 2.134-2.133 3.353-.305 2.438.914 5.18 3.048 8.228.61.915 1.524 1.829 1.219 2.743 0 1.22-.914 1.829-1.829 2.438 0 0-.304.305-.61.305-3.352 1.524-5.79 2.743-7.618 4.572-.305.61-.61 1.219-.61 1.828 0 .914.305 1.524.914 1.829.61.304 1.22.61 2.134.914 1.219.61 2.743.914 4.266.914h6.4c.915 0 1.524.61 1.524 1.524s-.61 1.524-1.524 1.524z"/><path d="M38.4 62.476H25.905c-2.743 0-5.181-.305-7.315-1.219-1.523-.61-2.742-1.219-3.657-2.133-1.828-.914-2.743-3.048-2.743-5.181 0-1.829.61-3.353 1.829-4.876 2.438-2.743 6.4-4.877 11.886-6.705l.914-.914-.914-.915c-3.962-5.18-5.79-9.752-5.181-14.019.61-2.743 1.828-5.18 4.266-7.01 3.962-2.742 10.058-2.742 13.715 0 2.438 1.83 3.962 4.267 4.266 7.01.61 4.267-1.219 9.143-4.876 14.02-.914.914-.914 1.218-.914 1.218s.61.305.914.61c5.486 1.828 9.448 3.962 11.886 6.705 1.219 1.219 1.829 3.047 1.829 4.876 0 2.133-.915 4.267-2.439 5.486-.914.914-2.133 1.523-3.657 2.133-2.438.61-4.876.914-7.314.914zM32 20.114c-1.829 0-3.657.61-5.181 1.524-1.829 1.22-2.743 3.048-3.048 5.181-.304 3.352 1.22 7.314 4.267 11.581.914.914 1.829 1.829 1.524 3.352 0 1.22-1.22 2.134-2.133 3.048 0 0-.305.305-.61.305-5.18 1.524-8.533 3.657-10.971 6.095-.305.61-.61 1.829-.61 2.743 0 1.219.61 2.438 1.524 3.047.61.61 1.828 1.22 3.048 1.524 1.828.61 3.961.915 6.095.915H38.4c2.133 0 4.267-.305 6.095-.915 1.22-.304 2.134-.914 3.048-1.524.914-.609 1.524-1.828 1.524-3.047 0-.914-.305-2.133-1.22-2.743-2.133-2.438-5.79-4.267-10.97-6.095-.306 0-.306-.305-.61-.305-.915-.914-2.134-1.829-2.134-3.048s.915-2.438 1.829-3.352c3.048-3.962 4.571-8.229 4.267-11.581-.305-2.133-1.22-3.657-3.048-5.18-1.524-.915-3.352-1.525-5.181-1.525z"/></g></svg>